HIERARCHY
ROOT Hips
{
	OFFSET 0.0000 0.0000 0.0000
	CHANNELS 6 Xposition Yposition Zposition Zrotation Xrotation Yrotation
	JOINT Spine1
	{
		OFFSET -0.0137 5.0038 -0.0537
		CHANNELS 3 Zrotation Xrotation Yrotation
		JOINT Spine2
		{
			OFFSET -0.0000 7.1253 -0.0298
			CHANNELS 3 Zrotation Xrotation Yrotation
			JOINT Chest
			{
				OFFSET -0.0000 7.5501 -0.8160
				CHANNELS 3 Zrotation Xrotation Yrotation
				JOINT Neck1
				{
					OFFSET -0.1817 26.3113 -0.5533
					CHANNELS 3 Zrotation Xrotation Yrotation
					JOINT Neck2
					{
						OFFSET -0.0000 7.7094 2.3026
						CHANNELS 3 Zrotation Xrotation Yrotation
						JOINT Head
						{
							OFFSET -0.0000 6.1289 1.9537
							CHANNELS 3 Zrotation Xrotation Yrotation
							JOINT Jaw
							{
								OFFSET 0.0026 0.4756 3.0949
								CHANNELS 3 Zrotation Xrotation Yrotation
								End Site
								{
									OFFSET 0.0 1.0 0.0
								}
							}
							JOINT LeftEye
							{
								OFFSET 3.2064 5.3802 7.5869
								CHANNELS 3 Zrotation Xrotation Yrotation
								End Site
								{
									OFFSET 0.0 1.0 0.0
								}
							}
							JOINT RightEye
							{
								OFFSET -3.2224 5.3619 7.5582
								CHANNELS 3 Zrotation Xrotation Yrotation
								End Site
								{
									OFFSET 0.0 1.0 0.0
								}
							}
						}
					}
				}
				JOINT LeftShoulder
				{
					OFFSET 1.6217 23.2372 5.1134
					CHANNELS 3 Zrotation Xrotation Yrotation
					JOINT LeftArm
					{
						OFFSET 14.9198 0.0000 -5.5023
						CHANNELS 3 Zrotation Xrotation Yrotation
						JOINT LeftForeArm
						{
							OFFSET 28.7393 0.0000 -0.0026
							CHANNELS 3 Zrotation Xrotation Yrotation
							JOINT LeftHand
							{
								OFFSET 27.0940 -0.0000 0.0026
								CHANNELS 3 Zrotation Xrotation Yrotation
								JOINT LeftHandThumbEnd
								{
									OFFSET 12.2686 -3.2202 4.8331
									CHANNELS 3 Zrotation Xrotation Yrotation
									End Site
									{
										OFFSET 0.0 1.0 0.0
									}
								}
								JOINT LeftHandMiddleEnd
								{
									OFFSET 19.0120 -0.3129 -0.0340
									CHANNELS 3 Zrotation Xrotation Yrotation
									End Site
									{
										OFFSET 0.0 1.0 0.0
									}
								}
							}
						}
					}
				}
				JOINT RightShoulder
				{
					OFFSET -1.3801 23.1803 5.2142
					CHANNELS 3 Zrotation Xrotation Yrotation
					JOINT RightArm
					{
						OFFSET -15.0372 0.0000 -5.5456
						CHANNELS 3 Zrotation Xrotation Yrotation
						JOINT RightForeArm
						{
							OFFSET -28.7366 0.0000 -0.0026
							CHANNELS 3 Zrotation Xrotation Yrotation
							JOINT RightHand
							{
								OFFSET -27.1336 -0.0000 0.0026
								CHANNELS 3 Zrotation Xrotation Yrotation
								JOINT RightHandThumbEnd
								{
									OFFSET -12.2642 -3.2115 4.8040
									CHANNELS 3 Zrotation Xrotation Yrotation
									End Site
									{
										OFFSET 0.0 1.0 0.0
									}
								}
								JOINT RightHandMiddleEnd
								{
									OFFSET -19.0006 -0.3066 -0.0316
									CHANNELS 3 Zrotation Xrotation Yrotation
									End Site
									{
										OFFSET 0.0 1.0 0.0
									}
								}
							}
						}
					}
				}
			}
		}
	}
	JOINT LeftLeg
	{
		OFFSET 10.0432 -8.4345 2.5957
		CHANNELS 3 Zrotation Xrotation Yrotation
		JOINT LeftShin
		{
			OFFSET -0.0000 -43.2218 -0.8029
			CHANNELS 3 Zrotation Xrotation Yrotation
			JOINT LeftFoot
			{
				OFFSET 0.0000 -42.1551 -3.4815
				CHANNELS 3 Zrotation Xrotation Yrotation
				JOINT LeftToeBase
				{
					OFFSET 0.0000 -5.0595 13.2315
					CHANNELS 3 Zrotation Xrotation Yrotation
					End Site
					{
						OFFSET 0.0 1.0 0.0
					}
				}
			}
		}
	}
	JOINT RightLeg
	{
		OFFSET -10.0473 -8.2953 2.6203
		CHANNELS 3 Zrotation Xrotation Yrotation
		JOINT RightShin
		{
			OFFSET 0.0000 -43.3622 -0.8056
			CHANNELS 3 Zrotation Xrotation Yrotation
			JOINT RightFoot
			{
				OFFSET 0.0000 -42.1174 -3.4784
				CHANNELS 3 Zrotation Xrotation Yrotation
				JOINT RightToeBase
				{
					OFFSET -0.0000 -5.0796 13.2842
					CHANNELS 3 Zrotation Xrotation Yrotation
					End Site
					{
						OFFSET 0.0 1.0 0.0
					}
				}
			}
		}
	}
}
MOTION
Frames: 12
Frame Time: 0.033333
-71.8762 83.7095 50.4841 4.7412 7.2598 -1.0964 4.1986 1.3336 -1.2836 0.2777 -3.0816 -1.1845 -1.0763 13.7205 -5.2450 2.3502 -10.8148 1.0182 -6.8677 -4.1797 -17.4762 6.2305 -0.6806 -26.9083 -0.0477 -0.2268 0.1676 0.8476 -11.0385 -3.7085 -0.9269 -11.0525 4.0041 -4.9282 13.6309 -8.7942 -69.1524 3.4677 -30.1897 -1.2364 -0.0830 -7.9890 6.6975 -21.5450 6.8758 -16.5131 9.7695 14.4425 -60.1197 1.8337 1.5303 4.5277 9.3889 14.1343 37.0662 -37.5427 -4.7559 0.4095 1.0347 91.0461 -54.5697 -9.9320 8.4923 15.4246 7.7040 -16.1612 50.0598 -3.6079 -4.7691 24.7895 -6.4405 18.0817 -0.6018 27.0409 -1.5888 -26.1968 -6.3742 20.5787 1.7965 -2.1716 -2.0475 -11.5525 -62.6273 -24.5387 0.2975 50.1488 0.4240 5.5355 5.3749 -13.0615 -1.4793 2.2841 0.8991
-70.4276 83.9557 49.4460 4.3077 5.6082 -1.6683 3.4082 1.8684 -1.2282 0.0730 -3.0551 -1.3439 -1.5700 14.1843 -5.4249 4.1411 -8.8459 0.4133 -6.6701 -4.1581 -17.6606 6.6621 -1.2225 -26.1879 -0.0496 -0.2017 0.1749 0.8664 -10.9921 -3.7006 -0.9494 -10.9959 4.0119 -4.4245 14.3981 -9.1583 -69.5012 -0.2029 -31.2751 -1.2163 -0.0862 -6.9658 7.2859 -23.0441 6.9616 -16.3815 10.0470 14.7323 -60.0114 1.8217 1.5381 5.9725 10.1811 12.6226 43.9551 -33.3238 -3.0819 0.8066 1.3252 96.3870 -57.0188 -3.3406 8.0502 15.3471 7.6701 -16.3651 49.7659 -3.6490 -4.9349 24.3162 -4.8053 16.8689 -0.3025 28.3942 -1.4123 -30.9898 -9.2574 21.6152 1.7760 -1.6500 -2.1686 -12.7281 -60.1869 -23.1430 0.2933 47.2929 0.5033 4.6156 7.1951 -12.9901 -1.4842 2.0617 0.8177
-68.8820 83.9191 48.2745 4.4945 4.3642 -2.0093 2.4569 2.3777 -1.1605 -0.1522 -2.9761 -1.4634 -2.0805 14.7987 -5.4091 5.5901 -7.4937 -0.0053 -6.4049 -4.2213 -18.0739 7.1487 -1.8665 -25.9850 -0.0595 -0.1780 0.2064 0.8721 -10.9920 -3.6847 -0.9753 -10.9943 4.0647 -4.3190 14.9211 -9.6088 -68.8852 -3.7428 -31.0445 -0.6310 -0.1049 -7.1364 11.8674 -27.4925 3.4928 -16.1629 10.5351 15.2839 -60.4518 1.7115 1.5077 8.4437 11.0267 11.7796 48.3973 -29.9772 -1.2005 1.4209 1.3669 100.0602 -59.2801 2.6159 8.4819 15.2253 7.5841 -16.5183 49.6083 -3.7478 -4.9482 23.3319 -3.8325 16.4383 -0.0846 29.6585 -1.2962 -34.1128 -11.7604 22.4459 1.6989 -0.8186 -2.2227 -14.4141 -58.9282 -21.8556 0.2883 44.7311 0.5254 3.7406 9.1664 -12.7967 -1.4795 1.9708 0.7480
-67.4514 83.8193 47.0158 5.4141 3.3785 -1.7572 1.3897 2.8376 -1.1303 -0.4332 -2.7390 -1.3287 -2.9286 15.7884 -5.4983 7.0718 -6.9919 -0.4917 -6.5934 -4.2522 -18.3266 7.9376 -2.6670 -27.0554 -0.0622 -0.1919 0.2275 0.8554 -10.9694 -3.6629 -0.9662 -11.0035 4.0883 -3.8019 15.0324 -9.9111 -67.5350 -6.0917 -32.0424 -0.1317 -0.1359 -8.1499 18.2397 -31.8935 -2.3209 -15.5834 10.6076 15.5902 -60.2047 1.4974 1.6755 12.1551 11.4704 11.7225 50.6387 -27.7944 -0.3673 1.8638 1.1053 102.6766 -61.0371 7.0854 9.2258 15.0232 7.4750 -16.6437 49.3437 -3.8959 -5.1218 21.9092 -4.5018 16.1730 -0.0043 32.5414 -1.1242 -35.1433 -13.8430 21.7120 1.6607 -0.1756 -2.2657 -16.8175 -58.4260 -20.9090 0.2899 42.1654 0.5261 3.3950 11.4533 -12.2423 -1.4688 1.7456 0.7795
-66.1316 83.7816 45.6777 5.9161 2.8729 -1.1195 0.7335 3.3252 -1.1405 -0.6580 -2.5146 -1.0384 -3.2901 16.9488 -5.6108 8.2163 -6.9389 -0.8436 -6.8091 -4.2907 -18.7145 8.7660 -3.5772 -28.5106 -0.0651 -0.2144 0.2677 0.8188 -10.9731 -3.6184 -0.9373 -11.0500 4.1296 -2.6504 15.0044 -9.9976 -65.8855 -6.8674 -34.5611 -0.1081 -0.1638 -9.3218 21.4817 -32.2182 -5.4654 -15.4037 10.4631 15.8095 -59.9824 1.3343 1.9267 15.8285 11.7092 12.1178 51.3712 -26.6850 -0.7573 1.9558 0.8726 105.0673 -61.3919 10.1358 11.2653 14.8894 7.4036 -16.5556 49.1830 -3.9835 -5.1971 20.8465 -6.5479 15.8775 -0.0032 36.0630 -1.0106 -34.8583 -15.9121 20.3844 1.6496 0.2965 -2.2139 -17.6858 -57.9973 -21.6196 0.3127 39.1439 0.5610 3.4725 13.9698 -11.6144 -1.4498 1.5688 0.8348
-64.9659 83.9051 44.3155 5.8657 2.9136 -0.4931 0.4202 3.8283 -1.1475 -0.7676 -2.2874 -0.8440 -3.0310 17.8778 -5.5347 9.1303 -6.9439 -1.0851 -6.9015 -4.3120 -19.2081 9.3947 -4.3549 -29.6302 -0.0636 -0.2280 0.2752 0.7837 -10.9830 -3.6032 -0.8997 -11.1002 4.1318 -1.3547 14.9145 -9.8937 -64.5295 -5.8448 -37.4136 -0.4936 -0.1816 -10.6701 21.3562 -30.4891 -5.6791 -15.5443 10.3092 15.7828 -59.9415 1.3150 2.1386 18.4290 11.7926 12.5388 51.6320 -26.7493 -2.4686 2.1390 0.7802 106.8797 -61.1869 11.2770 13.3243 14.8685 7.4025 -16.3839 49.2065 -3.9586 -5.1787 20.1317 -9.2006 15.4114 -0.0400 39.3341 -0.9811 -34.0263 -17.5612 19.3171 1.6585 0.4711 -2.1108 -17.1238 -57.4178 -23.1426 0.2925 35.6897 0.5764 3.8652 16.4516 -11.1633 -1.4350 1.5166 0.8667
-63.9893 84.0396 43.0786 5.8135 3.2979 -0.1225 0.1989 4.3542 -1.0870 -0.7916 -2.0913 -0.8268 -2.7118 18.4314 -5.2821 9.8802 -6.8910 -1.2229 -7.0339 -4.3151 -19.6979 9.9475 -4.7487 -30.3976 -0.0620 -0.2382 0.2564 0.7696 -11.0121 -3.6206 -0.8810 -11.1486 4.1080 -0.3576 14.8977 -9.7755 -63.7491 -3.3944 -39.4957 -0.8746 -0.1903 -12.4718 19.1667 -27.5642 -4.5180 -15.6707 10.1716 15.5863 -59.8716 1.3843 2.2464 19.6265 11.7797 12.9014 52.0790 -27.5681 -5.1073 2.2620 0.6444 107.7282 -61.2887 10.9986 14.2298 14.8822 7.4209 -16.2309 49.2746 -3.9375 -5.1360 19.3572 -11.5648 15.1540 -0.1117 41.7204 -1.0042 -33.4942 -18.6979 18.7254 1.6719 0.4931 -2.0833 -16.5218 -57.0083 -24.1369 0.2197 32.4577 0.5455 4.5009 18.5980 -10.8426 -1.4252 1.5645 0.8649
-63.2344 84.1574 42.0378 5.9111 3.9402 0.0471 0.0647 4.7236 -1.0288 -0.8158 -1.9262 -0.7573 -2.5600 18.7427 -5.0868 10.4109 -6.9017 -1.2587 -7.1968 -4.3349 -20.1552 10.4441 -4.9428 -30.8630 -0.0591 -0.2391 0.2259 0.7750 -11.0413 -3.6500 -0.8809 -11.1782 4.0783 -0.0092 14.9483 -9.6718 -63.4011 -0.1951 -40.4983 -1.0815 -0.1826 -14.5987 16.4985 -24.4633 -3.5324 -15.6840 10.0521 15.2920 -59.7041 1.4548 2.2075 20.0025 11.6348 13.2550 52.1723 -28.6384 -7.9140 2.1526 0.4570 107.8889 -61.4959 10.2046 14.0181 14.8781 7.4450 -16.1512 49.2742 -3.9472 -5.0921 18.5070 -13.5629 15.2154 -0.1955 43.2801 -1.0247 -33.3586 -19.4719 18.4230 1.6788 0.5408 -2.1145 -16.0392 -56.9897 -24.7103 0.1577 29.7795 0.5117 5.2246 20.3495 -10.4712 -1.4186 1.5732 0.8389
-62.7917 84.2613 41.2979 6.0825 4.6730 0.2142 0.0227 4.9098 -0.9952 -0.8773 -1.7917 -0.6156 -2.5344 18.9182 -5.0063 10.7524 -7.0472 -1.2367 -7.3137 -4.3830 -20.5688 10.7789 -5.0800 -31.1763 -0.0541 -0.2255 0.2021 0.7941 -11.0526 -3.6783 -0.8898 -11.1829 4.0559 -0.1289 14.9379 -9.5135 -63.4138 3.0163 -40.6549 -1.1878 -0.1366 -16.4067 14.3975 -22.1717 -3.1950 -15.6466 9.9989 15.0858 -59.6278 1.4416 2.1198 20.0780 11.3627 13.6128 51.6970 -29.5794 -10.2661 1.8479 0.3809 107.8041 -61.7665 9.5831 13.3910 14.9049 7.5045 -16.0928 49.3820 -3.9018 -5.0421 17.8112 -15.1888 15.4632 -0.2733 44.1328 -1.0253 -33.2912 -19.9512 18.0709 1.6845 0.5446 -2.1611 -15.5949 -57.2572 -25.1728 0.0977 27.9088 0.4520 5.7793 21.5688 -10.1377 -1.4177 1.5049 0.8202
-62.6395 84.3703 40.8311 6.2364 5.2767 0.4337 0.0504 5.0102 -0.9617 -0.9360 -1.6910 -0.5034 -2.5345 18.9821 -4.9685 10.8899 -7.2579 -1.1991 -7.3609 -4.3845 -20.8911 10.9010 -5.1932 -31.4073 -0.0498 -0.2093 0.1942 0.8083 -11.0373 -3.6861 -0.8948 -11.1614 4.0437 -0.3659 14.8567 -9.3219 -63.7373 5.7266 -40.4519 -1.2452 -0.0857 -17.5025 12.9130 -20.9167 -3.1777 -15.6395 10.0035 14.9883 -59.6322 1.4039 2.0547 20.0212 11.1340 13.9098 51.0653 -30.3652 -11.9896 1.5426 0.4029 107.5712 -62.2719 9.3354 12.6253 14.9045 7.5772 -16.0655 49.5862 -3.8565 -5.0207 17.4234 -16.3408 15.7777 -0.3203 44.4153 -1.0354 -33.1770 -20.0812 17.5941 1.6910 0.4200 -2.1896 -15.0813 -57.6105 -25.7191 0.0624 26.9312 0.4046 6.0063 22.2193 -9.9141 -1.4207 1.4425 0.8107
-62.7916 84.4628 40.6408 6.3294 5.6936 0.6827 0.1243 5.0741 -0.9453 -0.9707 -1.6355 -0.4312 -2.4863 18.9852 -4.9313 10.8728 -7.4641 -1.1668 -7.3988 -4.3778 -21.1076 10.8970 -5.2227 -31.6474 -0.0487 -0.2120 0.1997 0.8135 -11.0345 -3.6837 -0.8974 -11.1550 4.0510 -0.5550 14.8048 -9.1615 -64.2559 7.7331 -40.1180 -1.2707 -0.0356 -17.9324 11.9216 -20.4515 -3.2110 -15.6701 10.0438 15.0097 -59.6831 1.4014 2.0348 19.8253 10.9935 14.1141 50.7334 -31.0196 -13.3004 1.3727 0.4408 107.3650 -62.9383 9.4120 11.7890 14.9018 7.6145 -16.0018 49.7517 -3.8266 -5.0110 17.3485 -17.0470 16.0768 -0.3644 44.3205 -1.0730 -33.0453 -19.9798 17.0124 1.6965 0.2576 -2.1933 -14.3942 -57.9945 -26.5422 0.0566 26.7055 0.3766 6.0844 22.4535 -9.6999 -1.4205 1.4498 0.8078
-63.1331 84.5591 40.6456 6.3805 5.9517 0.9253 0.2405 5.0837 -0.9240 -0.9833 -1.6123 -0.4318 -2.3847 18.9094 -4.8748 10.7272 -7.6218 -1.1238 -7.3970 -4.3718 -21.3018 10.7713 -5.2025 -31.8390 -0.0479 -0.2197 0.2006 0.8117 -11.0283 -3.6819 -0.8937 -11.1450 4.0507 -0.6972 14.7980 -9.0359 -64.9013 9.1925 -39.7603 -1.2696 0.0022 -17.9015 11.2957 -20.3900 -3.2890 -15.7374 10.0792 15.0349 -59.7034 1.4491 1.9947 19.5362 10.9338 14.2407 50.6642 -31.5121 -14.2799 1.2670 0.4849 107.1291 -63.5433 9.7808 10.8733 14.8818 7.6279 -15.9451 49.8134 -3.7957 -4.9986 17.4997 -17.3032 16.3537 -0.3869 43.8240 -1.1136 -32.9249 -19.6389 16.4476 1.7040 0.0827 -2.1751 -13.5720 -58.4146 -27.6036 0.0563 27.1773 0.3309 6.1932 22.2729 -9.3800 -1.4196 1.4887 0.8190
